<svg width="724" height="600" viewBox="0 0 724 600" fill="none" xmlns="http://www.w3.org/2000/svg">
<g clip-path="url(#clip0_1306_42404)">
<path d="M452.727 425.222C495.72 390.211 502.191 326.976 467.18 283.983C432.169 240.989 368.934 234.518 325.94 269.529C282.947 304.54 276.476 367.776 311.487 410.769C346.498 453.763 409.734 460.234 452.727 425.222Z" stroke="#0085EA" stroke-width="1.55541" stroke-linecap="round" stroke-linejoin="round" stroke-dasharray="0.18 28.13"/>
<path opacity="0.1" d="M430.664 438.823C481.254 416.132 503.871 356.726 481.181 306.136C458.49 255.546 399.084 232.929 348.494 255.62C297.904 278.311 275.287 337.716 297.978 388.307C320.668 438.897 380.074 461.514 430.664 438.823Z" stroke="#0085EA" stroke-width="1.03694" stroke-linecap="round" stroke-dasharray="0.35 15.47"/>
<path opacity="0.4" d="M442.301 384.744C421.136 414.044 380.226 420.638 350.926 399.474C321.626 378.309 315.031 337.398 336.197 308.099C352.719 285.226 381.274 276.19 406.945 283.395" stroke="url(#paint0_linear_1306_42404)" stroke-width="0.518469" stroke-linecap="round"/>
<path opacity="0.4" d="M458.926 313C476.459 352.092 458.984 397.994 419.892 415.527C380.801 433.061 334.898 415.584 317.365 376.493C303.678 345.977 311.325 311.311 333.936 289.229" stroke="#66B6F2" stroke-width="0.518469" stroke-linecap="round"/>
<path opacity="0.4" d="M328.945 394.065C302.767 361.919 307.579 314.658 339.695 288.504C371.811 262.352 419.067 267.211 445.245 299.357C465.681 324.452 467.23 358.758 451.649 385.042" stroke="url(#paint1_linear_1306_42404)" stroke-width="0.518469" stroke-linecap="round"/>
<path d="M336.903 464.047C270.954 438.939 237.846 365.122 262.954 299.173C288.062 233.224 361.879 200.116 427.828 225.224C455.343 235.699 477.141 254.653 491.381 277.976" stroke="url(#paint2_linear_1306_42404)" stroke-width="0.518469" stroke-linecap="round"/>
<path d="M326.054 527.352C227.609 489.873 178.187 379.685 215.667 281.24C253.147 182.796 363.335 133.374 461.779 170.854C502.851 186.49 535.39 214.784 556.645 249.6" stroke="url(#paint3_linear_1306_42404)" stroke-width="0.518469" stroke-linecap="round"/>
<path d="M481.857 118.912C604.464 165.591 666.016 302.824 619.337 425.431C572.658 548.038 435.425 609.59 312.817 562.911C261.664 543.436 221.139 508.199 194.667 464.838" stroke="url(#paint4_linear_1306_42404)" stroke-width="0.518469" stroke-linecap="round"/>
<path d="M144.408 393.705C165.286 523.226 287.208 611.297 416.729 590.419C546.248 569.54 634.321 447.618 613.442 318.098C604.731 264.061 578.432 217.238 541.332 182.533" stroke="url(#paint5_linear_1306_42404)" stroke-width="0.518469" stroke-linecap="round"/>
<path d="M492.495 271.438C537.075 326.181 528.842 406.692 474.108 451.265C419.373 495.837 338.864 487.592 294.284 432.848C275.685 410.009 266.279 382.684 265.607 355.356" stroke="url(#paint6_linear_1306_42404)" stroke-width="0.518469" stroke-linecap="round"/>
<path d="M486.756 249.99C536.428 293.864 541.128 369.697 497.255 419.369C453.382 469.041 377.548 473.741 327.876 429.868C307.152 411.564 294.257 387.696 289.45 362.486" stroke="url(#paint7_linear_1306_42404)" stroke-width="0.518469" stroke-linecap="round"/>
<g opacity="0.3">
<path d="M525.777 513.933C618.152 438.709 632.055 302.843 556.831 210.467C481.606 118.092 345.74 104.189 253.365 179.413C160.99 254.638 147.087 390.504 222.311 482.879C297.536 575.254 433.402 589.157 525.777 513.933Z" stroke="#0085EA" stroke-width="1.55541" stroke-linecap="round" stroke-linejoin="round" stroke-dasharray="0.18 31.65"/>
<path opacity="0.4" d="M525.777 513.933C618.152 438.709 632.055 302.843 556.831 210.467C481.606 118.092 345.74 104.189 253.365 179.413C160.99 254.638 147.087 390.504 222.311 482.879C297.536 575.254 433.402 589.157 525.777 513.933Z" stroke="#0085EA" stroke-width="1.03694" stroke-linecap="round" stroke-dasharray="0.18 15.82"/>
</g>
<g opacity="0.2">
<path d="M564.045 560.832C682.317 464.519 700.118 290.563 603.805 172.291C507.492 54.0191 333.536 36.2179 215.264 132.531C96.9918 228.845 79.1906 402.8 175.504 521.073C271.817 639.345 445.773 657.146 564.045 560.832Z" stroke="#0085EA" stroke-width="1.55541" stroke-linecap="round" stroke-linejoin="round" stroke-dasharray="1.04 31.11"/>
<path opacity="0.2" d="M564.045 560.832C682.317 464.519 700.118 290.563 603.805 172.291C507.492 54.0191 333.536 36.2179 215.264 132.531C96.9918 228.845 79.1906 402.8 175.504 521.073C271.817 639.345 445.773 657.146 564.045 560.832Z" stroke="#0085EA" stroke-width="1.03694" stroke-linecap="round" stroke-dasharray="1.04 14.52"/>
</g>
<g opacity="0.6">
<path d="M488.532 467.997C555.527 413.44 565.61 314.903 511.054 247.907C456.497 180.912 357.959 170.828 290.964 225.385C223.969 279.942 213.885 378.479 268.442 445.475C322.999 512.47 421.536 522.554 488.532 467.997Z" stroke="#0085EA" stroke-width="1.55541" stroke-linecap="round" stroke-linejoin="round" stroke-dasharray="0.18 31.65"/>
<path opacity="0.4" d="M488.532 467.997C555.527 413.44 565.61 314.903 511.054 247.907C456.497 180.912 357.959 170.828 290.964 225.385C223.969 279.942 213.885 378.479 268.442 445.475C322.999 512.47 421.536 522.554 488.532 467.997Z" stroke="#0085EA" stroke-width="1.03694" stroke-linecap="round" stroke-dasharray="0.18 15.82"/>
</g>
<path d="M536.637 300.018C536.511 299.694 536.873 299.399 537.165 299.588L538.605 300.517C538.735 300.601 538.905 300.592 539.025 300.494L540.354 299.412C540.623 299.193 541.015 299.446 540.926 299.782L540.487 301.437C540.447 301.587 540.508 301.746 540.639 301.83L542.078 302.76C542.37 302.947 542.25 303.399 541.904 303.418L540.193 303.512C540.038 303.521 539.906 303.628 539.867 303.778L539.428 305.434C539.339 305.769 538.873 305.795 538.748 305.472L538.129 303.874C538.073 303.729 537.93 303.637 537.775 303.645L536.065 303.74C535.719 303.759 535.55 303.324 535.819 303.105L537.148 302.023C537.268 301.925 537.311 301.76 537.256 301.616L536.637 300.018Z" fill="#66B6F2"/>
<path d="M226.627 489.687C226.502 489.363 226.864 489.068 227.155 489.257L228.595 490.186C228.725 490.27 228.895 490.261 229.015 490.163L230.344 489.081C230.613 488.862 231.005 489.115 230.916 489.451L230.477 491.106C230.437 491.256 230.498 491.415 230.629 491.499L232.069 492.428C232.36 492.616 232.24 493.068 231.894 493.087L230.184 493.181C230.028 493.19 229.897 493.297 229.857 493.447L229.418 495.103C229.329 495.438 228.863 495.464 228.738 495.141L228.12 493.543C228.063 493.398 227.92 493.306 227.765 493.314L226.055 493.409C225.709 493.428 225.54 492.992 225.809 492.773L227.138 491.692C227.258 491.594 227.301 491.429 227.246 491.285L226.627 489.687Z" fill="#66B6F2"/>
<path d="M240.736 399.796C240.611 399.473 240.973 399.178 241.265 399.366L242.705 400.295C242.834 400.379 243.004 400.37 243.125 400.272L244.453 399.19C244.722 398.971 245.115 399.224 245.025 399.56L244.586 401.216C244.546 401.366 244.608 401.524 244.739 401.608L246.178 402.538C246.469 402.726 246.349 403.177 246.003 403.196L244.293 403.291C244.138 403.299 244.006 403.407 243.966 403.557L243.527 405.212C243.438 405.547 242.972 405.573 242.847 405.25L242.229 403.652C242.173 403.507 242.03 403.415 241.875 403.424L240.165 403.518C239.818 403.537 239.65 403.102 239.919 402.883L241.247 401.801C241.367 401.703 241.411 401.539 241.355 401.394L240.736 399.796Z" fill="#66B6F2"/>
<path d="M383.418 243.513C383.293 243.189 383.655 242.895 383.946 243.083L385.386 244.012C385.516 244.096 385.686 244.087 385.806 243.989L387.135 242.907C387.404 242.688 387.796 242.941 387.707 243.277L387.268 244.932C387.228 245.082 387.289 245.241 387.42 245.325L388.86 246.255C389.151 246.443 389.031 246.894 388.685 246.913L386.975 247.007C386.82 247.016 386.688 247.123 386.648 247.274L386.209 248.929C386.12 249.264 385.654 249.29 385.529 248.967L384.911 247.369C384.854 247.224 384.711 247.132 384.556 247.141L382.846 247.235C382.5 247.254 382.331 246.819 382.6 246.6L383.929 245.518C384.049 245.42 384.092 245.256 384.037 245.111L383.418 243.513Z" fill="#66B6F2"/>
<path d="M341.974 193.583C341.826 193.188 342.284 192.815 342.641 193.04L344.405 194.147C344.564 194.247 344.775 194.231 344.927 194.107L346.605 192.741C346.944 192.465 347.425 192.766 347.306 193.182L346.718 195.231C346.665 195.417 346.737 195.611 346.897 195.711L348.66 196.818C349.017 197.042 348.857 197.601 348.426 197.633L346.3 197.794C346.108 197.808 345.941 197.944 345.888 198.13L345.3 200.179C345.181 200.594 344.602 200.638 344.455 200.243L343.728 198.291C343.662 198.115 343.487 198.005 343.294 198.02L341.168 198.18C340.738 198.212 340.54 197.68 340.879 197.404L342.557 196.038C342.708 195.914 342.766 195.711 342.701 195.534L341.974 193.583Z" fill="#66B6F2"/>
<path d="M457.395 139.616C457.269 139.292 457.631 138.997 457.923 139.186L459.363 140.115C459.493 140.199 459.662 140.189 459.783 140.091L461.112 139.009C461.38 138.79 461.773 139.044 461.684 139.379L461.245 141.035C461.205 141.185 461.266 141.344 461.397 141.428L462.836 142.357C463.127 142.545 463.008 142.996 462.661 143.015L460.951 143.11C460.796 143.119 460.664 143.226 460.624 143.376L460.185 145.032C460.097 145.367 459.63 145.393 459.505 145.07L458.887 143.471C458.831 143.327 458.688 143.234 458.533 143.243L456.823 143.338C456.477 143.357 456.308 142.921 456.577 142.702L457.905 141.62C458.025 141.523 458.069 141.358 458.013 141.213L457.395 139.616Z" fill="#66B6F2"/>
<path d="M602.338 330.733C602.212 330.409 602.575 330.114 602.866 330.303L604.306 331.232C604.436 331.316 604.606 331.307 604.726 331.209L606.055 330.127C606.324 329.908 606.716 330.161 606.627 330.497L606.188 332.152C606.148 332.302 606.209 332.461 606.34 332.545L607.78 333.474C608.071 333.662 607.951 334.114 607.605 334.133L605.895 334.227C605.739 334.236 605.608 334.343 605.568 334.493L605.129 336.149C605.04 336.484 604.574 336.51 604.449 336.187L603.831 334.589C603.774 334.444 603.631 334.352 603.476 334.36L601.766 334.455C601.42 334.474 601.251 334.038 601.52 333.819L602.849 332.737C602.969 332.64 603.012 332.475 602.957 332.331L602.338 330.733Z" fill="#66B6F2"/>
</g>
<defs>
<linearGradient id="paint0_linear_1306_42404" x1="427.57" y1="293.37" x2="438.369" y2="383.115" gradientUnits="userSpaceOnUse">
<stop stop-color="#0085EA" stop-opacity="0"/>
<stop offset="1" stop-color="#1E65E7"/>
</linearGradient>
<linearGradient id="paint1_linear_1306_42404" x1="434.494" y1="404.916" x2="331.899" y2="390.294" gradientUnits="userSpaceOnUse">
<stop stop-color="#0085EA" stop-opacity="0"/>
<stop offset="1" stop-color="#1E65E7"/>
</linearGradient>
<linearGradient id="paint2_linear_1306_42404" x1="333.55" y1="463.731" x2="455.414" y2="372.446" gradientUnits="userSpaceOnUse">
<stop stop-color="#0085EA"/>
<stop offset="1" stop-color="#B466F2" stop-opacity="0"/>
</linearGradient>
<linearGradient id="paint3_linear_1306_42404" x1="321.047" y1="526.88" x2="502.957" y2="390.617" gradientUnits="userSpaceOnUse">
<stop stop-color="#0085EA"/>
<stop offset="1" stop-color="#B466F2" stop-opacity="0"/>
</linearGradient>
<linearGradient id="paint4_linear_1306_42404" x1="488.091" y1="119.5" x2="580.43" y2="371.607" gradientUnits="userSpaceOnUse">
<stop stop-color="#0085EA"/>
<stop offset="1" stop-color="#B466F2" stop-opacity="0"/>
</linearGradient>
<linearGradient id="paint5_linear_1306_42404" x1="143.72" y1="399.93" x2="371.9" y2="541.417" gradientUnits="userSpaceOnUse">
<stop stop-color="#0085EA"/>
<stop offset="1" stop-color="#B466F2" stop-opacity="0"/>
</linearGradient>
<linearGradient id="paint6_linear_1306_42404" x1="495.243" y1="273.389" x2="344.014" y2="291.53" gradientUnits="userSpaceOnUse">
<stop stop-color="#0085EA"/>
<stop offset="1" stop-color="#B466F2" stop-opacity="0"/>
</linearGradient>
<linearGradient id="paint7_linear_1306_42404" x1="489.599" y1="251.377" x2="525.007" y2="373.214" gradientUnits="userSpaceOnUse">
<stop stop-color="#0085EA"/>
<stop offset="0.517777" stop-color="#B466F2" stop-opacity="0"/>
</linearGradient>
<clipPath id="clip0_1306_42404">
<rect width="554.052" height="554.052" fill="white" transform="translate(0 306.856) rotate(-39.1572)"/>
</clipPath>
</defs>
</svg>
